<?xml version="1.0" encoding="UTF-8"?>
<svg width="19px" height="19px" viewBox="0 0 19 19" version="1.1" xmlns="http://www.w3.org/2000/svg" xmlns:xlink="http://www.w3.org/1999/xlink">
    <!-- Generator: sketchtool 46.2 (44496) - http://www.bohemiancoding.com/sketch -->
    <title>FFA83191-765D-4EC8-BD8B-4EDCC59028D8</title>
    <desc>Created with sketchtool.</desc>
    <defs></defs>
    <g id="Front-End" stroke="none" stroke-width="1" fill="none" fill-rule="evenodd">
        <g id="Desktop-/2.1-Your-Order" transform="translate(-873.000000, -503.000000)" fill="#72659B">
            <g id="Popup" transform="translate(355.000000, 80.000000)">
                <g id="Add" transform="translate(29.000000, 422.000000)">
                    <g id="Page-1" transform="translate(489.000000, 1.000000)">
                        <g id="Group-3">
                            <path d="M12.025708,11.060052 C11.993788,11.072212 11.959588,11.075252 11.932228,11.095772 L8.537308,13.641012 C7.705868,14.223172 6.838708,14.807612 5.960908,15.371532 L5.681228,15.092612 C5.663748,15.032572 5.634108,14.976332 5.588508,14.931492 L4.068508,13.411492 C4.023668,13.365892 3.967428,13.336252 3.908148,13.318772 L3.628468,13.039092 C4.192388,12.161292 4.776828,11.294892 5.358228,10.462692 L7.904228,7.067772 C7.924748,7.039652 7.927788,7.004692 7.940708,6.973532 C8.788868,5.896612 9.527588,5.034012 10.045908,4.516452 C12.684628,1.876972 15.726148,0.786372 16.971028,2.028972 C18.215148,3.273852 17.123028,6.315372 14.483548,8.954092 C13.965228,9.472412 13.102628,10.211892 12.025708,11.060052 L12.025708,11.060052 Z M11.780228,15.959772 C11.780228,16.554092 11.220868,17.369572 10.689628,17.546652 L9.120228,18.087012 L9.120228,16.719772 C9.120228,16.025132 8.902108,15.198252 8.330588,14.747572 L9.039668,14.214812 C9.996508,13.545252 10.929028,12.863532 11.780228,12.212972 L11.780228,15.959772 Z M2.227028,17.926652 L0.842308,18.157692 L1.073348,16.772972 C1.296788,15.431572 2.305308,14.388092 3.617068,14.102332 L4.897668,15.382932 C4.611908,16.694692 3.568428,17.703212 2.227028,17.926652 L2.227028,17.926652 Z M4.252428,10.669412 C3.800988,10.097892 2.974868,9.879772 2.280228,9.879772 L0.912228,9.879772 L1.454108,8.307332 C1.630428,7.779132 2.445908,7.219772 3.040228,7.219772 L6.787028,7.219772 C6.135708,8.071732 5.453988,9.005772 4.782908,9.962612 L4.252428,10.669412 Z M17.508348,1.491652 C15.910828,-0.104348 12.546308,0.941412 9.508588,3.979132 C8.943148,4.544572 8.198348,5.417812 7.376788,6.459772 L3.040228,6.459772 C2.113028,6.459772 1.013308,7.225852 0.734388,8.063372 L0.020748,10.135892 C-0.019532,10.252932 -0.000532,10.380612 0.070908,10.480172 C0.142348,10.580492 0.257108,10.639772 0.380228,10.639772 L2.280228,10.639772 C2.932308,10.639772 3.633028,10.882972 3.786548,11.415732 C3.455188,11.910492 3.130668,12.404492 2.823628,12.887852 C2.727868,13.039092 2.749148,13.234412 2.875308,13.360572 L3.003748,13.489012 C1.613708,13.964012 0.572508,15.155692 0.323988,16.648332 L0.005548,18.557452 C-0.014972,18.678292 0.024548,18.802172 0.111188,18.888812 C0.183388,18.961012 0.279908,18.999772 0.380228,18.999772 C0.400748,18.999772 0.421268,18.998252 0.442548,18.994452 L2.351668,18.676012 C3.844308,18.428252 5.035228,17.386292 5.510988,15.996252 L5.639428,16.124692 C5.712388,16.198412 5.809668,16.236412 5.907708,16.236412 C5.978388,16.236412 6.049068,16.216652 6.112148,16.176372 C6.595508,15.868572 7.089508,15.544812 7.584268,15.213452 C8.117788,15.366972 8.360228,16.066932 8.360228,16.719772 L8.360228,18.619772 C8.360228,18.742132 8.419508,18.858412 8.519068,18.929092 C8.584428,18.976212 8.661948,18.999772 8.740228,18.999772 C8.781268,18.999772 8.823828,18.992932 8.863348,18.979252 L10.933588,18.266372 C11.774148,17.985932 12.540228,16.886972 12.540228,15.959772 L12.540228,11.622452 C13.582188,10.801652 14.455428,10.057612 15.020868,9.492172 C18.059348,6.452932 19.105108,3.089172 17.508348,1.491652 L17.508348,1.491652 Z" id="Fill-1"></path>
                        </g>
                        <path d="M13.8611654,6.8569744 C13.3863903,7.33415221 12.6136097,7.33415221 12.1388346,6.8569744 C11.9080954,6.62585368 11.7821666,6.31769272 11.7821666,5.99066477 C11.7821666,5.66363681 11.9080954,5.3570481 12.1388346,5.12592738 C12.3687916,4.89480666 12.6746187,4.76745443 13,4.76745443 C13.3253813,4.76745443 13.6312084,4.89480666 13.8611654,5.12592738 C14.0911224,5.3570481 14.2178334,5.66363681 14.2178334,5.99066477 C14.2178334,6.31769272 14.0911224,6.62585368 13.8611654,6.8569744 M11.5858428,4.57013708 C11.2080563,4.94904928 11,5.45452759 11,5.99066477 C11,6.5283742 11.2072741,7.03306638 11.5858428,7.4127647 C11.9753618,7.8042549 12.4876809,8 13,8 C13.5123191,8 14.0238561,7.8042549 14.4141572,7.4127647 C14.7919437,7.03306638 15,6.5283742 15,5.99066477 C15,5.45452759 14.7919437,4.94904928 14.4141572,4.57013708 C13.6585843,3.80995431 12.3414157,3.80995431 11.5858428,4.57013708" id="Fill-4"></path>
                    </g>
                </g>
            </g>
        </g>
    </g>
</svg>