<?xml version="1.0" encoding="UTF-8"?>
<svg width="40px" height="40px" viewBox="0 0 40 40" version="1.1" xmlns="http://www.w3.org/2000/svg" xmlns:xlink="http://www.w3.org/1999/xlink">
    <!-- Generator: sketchtool 46.2 (44496) - http://www.bohemiancoding.com/sketch -->
    <title>D88ED13F-C4B4-477E-B614-61280D477C25</title>
    <desc>Created with sketchtool.</desc>
    <defs></defs>
    <g id="Front-End" stroke="none" stroke-width="1" fill="none" fill-rule="evenodd">
        <g id="Desktop-/2.-Product-Details" transform="translate(-875.000000, -924.000000)" fill="#72659B">
            <g id="BODY" transform="translate(44.000000, 120.000000)">
                <g id="Details" transform="translate(789.000000, 86.000000)">
                    <g id="Coundown" transform="translate(1.000000, 664.000000)">
                        <g id="Time" transform="translate(41.000000, 54.000000)">
                            <path d="M20,38.3333333 C9.89166667,38.3333333 1.66666667,30.1083333 1.66666667,20 C1.66666667,9.89166667 9.89166667,1.66666667 20,1.66666667 C30.1083333,1.66666667 38.3333333,9.89166667 38.3333333,20 C38.3333333,30.1083333 30.1083333,38.3333333 20,38.3333333 M20,0 C8.97166667,0 0,8.97166667 0,20 C0,31.0283333 8.97166667,40 20,40 C31.0283333,40 40,31.0283333 40,20 C40,8.97166667 31.0283333,0 20,0" id="Fill-1"></path>
                            <path d="M20,34.3157895 C12.1061053,34.3157895 5.68421053,27.8938947 5.68421053,20 C5.68421053,12.1061053 12.1061053,5.68421053 20,5.68421053 C27.8938947,5.68421053 34.3157895,12.1061053 34.3157895,20 C34.3157895,27.8938947 27.8938947,34.3157895 20,34.3157895 M20,4 C11.1781053,4 4,11.1781053 4,20 C4,28.8218947 11.1781053,36 20,36 C28.8218947,36 36,28.8218947 36,20 C36,11.1781053 28.8218947,4 20,4" id="Fill-3"></path>
                            <path d="M20.1818182,8 C19.7301818,8 19.3636364,8.3584 19.3636364,8.8 L19.3636364,18.4 L12.8181818,18.4 C12.3665455,18.4 12,18.7584 12,19.2 C12,19.6416 12.3665455,20 12.8181818,20 L20.1818182,20 C20.6334545,20 21,19.6416 21,19.2 L21,8.8 C21,8.3584 20.6334545,8 20.1818182,8" id="Fill-5"></path>
                        </g>
                    </g>
                </g>
            </g>
        </g>
    </g>
</svg>