<svg viewBox="0 0 600 600" xmlns="http://www.w3.org/2000/svg"><path d="M331.6 438.7l-1.7-.6c-18.8-6.8-39.5-6.8-58.3 0l-1.6.6c-7.9 2.9-10.6 12.7-5.2 19.2l18.4 21.9c2.3 2.7 5.7 4.2 9.3 4.2h16.6c3.6 0 7-1.5 9.3-4.2l18.4-21.9c5.4-6.5 2.7-16.3-5.2-19.2z"/><path d="M563.7 267.4C442.5 155.4 448.2 97.9 362.5 82.2c-19.7-5.1-17.3-26.5-14.8-37.1.6-2.3-1.8-4.3-4-3.2l-25.6 11.8c-1.9.9-4.1-.5-4.1-2.6V35.6c0-2.4-2.6-3.7-4.5-2.3-14.6 10.9-60.7 44.1-88.9 52.5-.5.1-1 .6-1.5.7-.2.1-.4.5-.6.5-67 20-73.7 73.9-180.7 180.7C11 294.5 4.5 340.4 22.2 376.5l11 16.9c19.3 29.8 35.2 61.6 47.4 95l9 24.7c4.8 9.8 14.8 16 25.7 16 13.7 0 25.5-9.7 28.1-23.2l19.3-98.8c2.1-10.6 15.8-13.3 21.8-4.6-7 16-10 31-9.1 45.6.1 1.5.1 3.1.2 4.6.6 15.9 2.1 31.3 4.7 47.1.1.8.2 1.5.3 2.3 2.3 13.1 9.2 25.1 19.4 33.9 10.4 9 23.7 13.9 37.3 13.9 1.2 0 2.4-.1 3.6-.2 4.8-.3 9.6-1.1 14.2-2.6l31.3-9.9c4.4-1.4 9-2.1 13.7-2.1 4.7 0 9.3.7 13.7 2.1l31.3 10.1c5.7 1.8 11.5 2.9 17.5 2.9h.2c28.3 0 52.2-20.4 57-48.3 2.7-15.9 4.4-32.3 5.1-48.5.1-2 .2-3.7.2-5.2.9-13.1-1.4-26.6-7.1-40.8 6.1-7.9 19.4-5.4 21.5 5.1l18.2 93.5c2.9 13.3 14.3 23 28.3 23 11 0 21-6.2 25.8-16l9.1-24.7c12.2-33.3 28.1-65.2 47.4-95l11-17c17.8-36 9.1-86.1-15.6-108.9zm-382.4 13.3c-4.6 0-8.4-3.5-8.7-8.1-.1-1-.1-2-.1-3 .4-16.7 12.8-30.4 29.4-32.2 19.8-2.1 36.5 13.5 36.5 32.9 0 .8 0 1.3-.1 2-.3 4.5-4.2 7.6-8.7 7.6h-.1c-3.2 0-6.1-1.4-7.6-4.1-3.4-6-9.8-9.7-17.2-9.4-6.7.3-12.6 3.8-15.8 9.5-1.5 2.9-4.4 4.8-7.6 4.8zm137 242.9c-5.8-1.8-11.8-2.8-17.9-2.8-6.1 0-12.1.9-17.9 2.8l-31.3 9.9c-3.7 1.2-7.5 1.8-11.4 2-.7.1-1.5.2-2.3.2-20.8 0-39.2-15.5-42.9-36.2-.1-.5-.2-1-.2-1.6-1.2-7.2-2.1-14.4-2.9-21.5.7 7.1 1.7 14.3 2.9 21.5 0 .5.1 1 .2 1.6 3.7 20.6 22.1 36.2 42.9 36.2.8 0 1.5-.1 2.3-.2 3.9-.2 7.7-.8 11.4-2l31.3-9.9c5.8-1.8 11.8-2.8 17.9-2.8 6.1 0 12.1 1 17.9 2.8l31.3 9.9-31.3-9.9zm79.7-77.1c0 1.8-.5 3.6-.6 5.5 0 .1-.1.2-.1.3-.6 14.9-2.2 29.8-4.8 44.5-1.9 11-9.7 19.7-19.7 23.1-3.1 1.1-6.3 1.6-9.7 1.6v-.3l-.1-.2c-3 0-6.1-.2-9-1.1l-4.5-1.3-26.9-8.4c-7.2-2.3-14.7-3.4-22.2-3.4h-.4c-7.4 0-14.7 1.2-21.8 3.4l-26.8 8.5-4.5 1.2c-2.9.9-5.9 1.1-9 1.1-.1 0 .1.2.1.2-.1 0 0 .3 0 .3v.1c-15 0-27.1-9.6-29.5-24.6h.1c-2.6-15-4.4-30.4-5-45.6-.1-1.7-.6-3.3-.6-5 0-1 .2-2 .1-2.9 0-.1.1-.2.1-.4 0-.9.1-1.7.1-2.6 0-.3 0-.5.1-.8 0-.7.1-1.4.2-2.2 0-.4.1-.8.1-1.2.1-.6.1-1.2.2-1.8.1-.5.1-1 .1-1.5 0-29.4 31.5-58.6 51.6-88 22.3-32.7 33.1-118.4 33.8-210.8 0-6 5-10.9 11-10.9s10.9 4.9 11 10.9c.8 92.4 11.8 178.2 34.1 210.8 23.2 33.9 54.5 67.4 52.5 101.5zm11.2-21.7c1.3 5.4 2.1 10.8 2.2 16.3-.1-5.4-.8-10.9-2.2-16.3zm19.2-152.4c-.3 4.5-4.2 7.6-8.7 7.6h-.1c-3.2 0-6.1-1.4-7.6-4.1-3.4-6-9.8-9.7-17.2-9.4-6.7.3-12.6 3.8-15.8 9.5-1.6 2.8-4.5 4.7-7.7 4.7-4.6 0-8.4-3.5-8.7-8.1-.1-1-.1-2-.1-3 .4-16.7 12.8-30.4 29.4-32.2 19.8-2.1 36.5 13.4 36.5 32.7.1.9 0 1.5 0 2.3z"/></svg>