<svg viewBox="0 0 600 600" xmlns="http://www.w3.org/2000/svg"><path d="M356.3 341.8c10.8-15 17.6-24.5 18-25.1C427 244 440.5 198 438.7 165.5c-.1-.1-.1-.2-.2-.3 1.1-33.9-11.2-51.5-11.2-51.5l-6.1-5.4c2.3 1.7 4.3 3.5 6.1 5.4-16.7-28.4-30.8-55.7-39.7-70.8-8.9-15.3-32.2-23.9-71.7-23.9h-14.7c-39.5 0-62.9 8.6-71.7 23.7-8.9 15.1-23 42.3-39.7 70.8 14.9-16.2 51.1-26.2 118.7-26.2 24.8 0 45.4 1.4 62.3 3.9 1.7 1.1 3.8 2.1 6.5 3.1 26.8 9.9 11.3 38.8 11.3 38.8-15.1 35.2-43.2 74-67.2 107.6-.5.7-7.3 10.2-17.9 25.2-22.8-33.8-50.8-100.2-64.7-132.8-11.8 1.9-23.1 6.6-32.9 13.6-7 5-12.8 11.4-17.3 18.8-1.8 31.2 13.7 106.9 61.4 175.6-47.7 67-101.7 142.8-101.7 142.8l37.1 96.5s64.3-89.7 117.9-164.5C359.5 496 415 580.3 415 580.3l37.1-96.5c-.1.1-49.8-75.6-95.8-142z"/></svg>