<svg viewBox="0 0 600 600" xmlns="http://www.w3.org/2000/svg"><path d="M199.4 123c29.1 0 52.7-23.7 52.7-52.7 0-29.1-23.7-52.7-52.7-52.7s-52.7 23.7-52.7 52.7c0 29.1 23.7 52.7 52.7 52.7z"/><circle cx="368.8" cy="125.6" r="41.7"/><path d="M526 122.9L488.7 107l-37.1 65.2c-8.5 14.9-20.7 27.8-35.3 36.8h-98.8l1.2-18c.6-9.8-2.7-19.5-9.5-26.7-6.6-7-16-11.3-25.8-11.3H111.6c-10.3 0-20.1 4.5-26.7 12.1-6.7 7.7-9.8 18-8.4 28.1l43.1 316.1c-5.7 1.5-10.7 3.1-15 4.8-5.7 2.2-23.1 9-23.1 24.5s17.4 22.3 23.1 24.5c10 3.9 24 7.4 41.6 10.3 35 5.8 81.3 8.9 130.5 8.9s95.5-3.2 130.5-8.9c17.6-2.9 31.6-6.4 41.6-10.3 5.7-2.2 23.1-9 23.1-24.5s-17.4-22.3-23.1-24.5c-3.6-1.4-7.6-2.7-12.2-4l36.9-239.7c.5-3.4.7-6.9.6-10.4L526 122.9zM278.3 287.3c18 0 32.5 14.7 32.5 32.9s-14.6 32.9-32.5 32.9c-18 0-32.5-14.7-32.5-32.9 0-18.1 14.5-32.9 32.5-32.9zm33.5 254.6c-.4.2-1.2.6-2.3.7-8.1 2.2-36.6 8.8-65.9 0-.9-.1-1.5-.4-1.9-.6-.1 0-.2 0-.2-.1h0l-20.7-159.6c0-.4.1-1 .4-1.3.3-.4.7-.9 1.2-.9h108.3c.5 0 .9.5 1.2.9.3.3.4 1 .4 1.4l-20.5 159.5z"/></svg>