<svg viewBox="0 0 600 600" xmlns="http://www.w3.org/2000/svg"><path d="M551.1 239H400.9l36.1-75.5V21.3c0-7.8-6-14.3-13.8-14.3H247.6c-7.8 0-14.6 6.6-14.6 14.3v142.2l36.8 75.5H191v-21.4c0-7.3-6.3-13.6-13.6-13.6h-65.7c-7.3 0-13.7 6.3-13.7 13.6V239H49.3c-7.1 0-13.3 6.3-13.3 13.3v278.4c0 10.1 8.7 18.3 18.7 18.3h172.9c26.9 26 63.5 42.2 103.8 42.2s77-16.2 103.8-42.2h110.4c10.1 0 18.4-8.3 18.4-18.3V252.3c0-7-5.9-13.3-12.9-13.3zM259 33h149v64H259V33zM65 356v-28h170.5c-9.9 8-18.7 18-26.2 28H65zm322.1 192.7c-3.1 1.6-6.3 3.1-9.6 4.5h-.1c-1 .4-2.1.8-3.1 1.2-.1 0-.2.1-.3.1-1 .4-2 .7-3 1.1-.1 0-.2.1-.2.1-3.3 1.1-6.6 2.1-10 3-.2.1-.4.1-.6.2l-2.7.6c-.3.1-.5.1-.8.2-.9.2-1.8.4-2.7.5-.2 0-.5.1-.7.1-2.3.4-4.5.8-6.8 1.1-.3 0-.5.1-.8.1-.9.1-1.7.2-2.6.3-.4 0-.8.1-1.1.1-.8.1-1.5.1-2.3.2-.4 0-.8.1-1.2.1-.8 0-1.6.1-2.4.1H335c-1.2 0-2.3.1-3.5.1-1.2 0-2.3 0-3.5-.1h-1.1c-.8 0-1.6-.1-2.4-.1-.4 0-.8-.1-1.2-.1-.8-.1-1.5-.1-2.3-.2-.4 0-.8-.1-1.1-.1-.9-.1-1.7-.2-2.6-.3-.3 0-.5-.1-.8-.1-2.3-.3-4.6-.6-6.8-1.1-.2 0-.5-.1-.7-.1-.9-.2-1.8-.3-2.7-.5-.3-.1-.5-.1-.8-.2l-2.7-.6c-.2-.1-.4-.1-.6-.2-3.4-.9-6.7-1.8-10-3-.1 0-.1-.1-.2-.1-1-.4-2-.7-3-1.1-.1 0-.2-.1-.3-.1-1-.4-2.1-.8-3.1-1.2h-.1c-3.3-1.4-6.5-2.9-9.6-4.5-38.5-20.1-64.8-60.5-64.8-106.8 0-33.4 13.6-63.6 35.6-85.4.8-.8 1.5-1.5 2.3-2.2.1-.1.3-.2.4-.4.7-.6 1.3-1.2 2-1.8.2-.1.3-.3.5-.4.7-.6 1.4-1.2 2-1.8.1-.1.3-.2.4-.4.8-.6 1.6-1.3 2.3-1.9.1 0 .1-.1.1-.1 1.8-1.4 3.5-2.7 5.4-4h.1c.9-.6 1.7-1.2 2.6-1.8.1-.1.3-.2.4-.3.8-.5 1.5-1 2.3-1.5.2-.1.4-.2.5-.3.8-.5 1.6-1 2.3-1.4.2-.1.3-.2.5-.3l2.7-1.5s.1 0 .1-.1c2-1.1 4-2.1 6-3.1h.1c.9-.5 1.9-.9 2.9-1.3.2-.1.3-.1.5-.2.8-.4 1.7-.7 2.6-1.1.2-.1.4-.2.6-.2.9-.4 1.7-.7 2.6-1 .2-.1.3-.1.5-.2 13.1-4.9 27.3-7.6 42.1-7.6s29 2.7 42.1 7.6c.2.1.3.1.5.2.9.3 1.8.7 2.6 1 .2.1.4.2.6.2.9.4 1.7.7 2.6 1.1.2.1.3.1.5.2 1 .4 1.9.9 2.9 1.3h.1c2 1 4.1 2 6 3.1 0 0 .1 0 .1.1l2.7 1.5c.2.1.3.2.5.3.8.5 1.6.9 2.3 1.4.2.1.4.2.5.3.8.5 1.5 1 2.3 1.5.1.1.3.2.4.3.9.6 1.7 1.2 2.6 1.8h.1c1.8 1.3 3.6 2.6 5.4 4 .1 0 .1.1.1.1.8.6 1.6 1.3 2.3 1.9.1.1.3.2.4.4.7.6 1.4 1.2 2 1.8.2.1.3.3.5.4.7.6 1.3 1.2 2 1.8.1.1.3.2.4.4.8.7 1.5 1.5 2.3 2.2 22 21.8 35.6 52.1 35.6 85.4 0 46.3-26.3 86.6-64.8 106.8zM540 356h-86.5c-7.5-10-16.3-20-26.2-28H540v28z"/><path d="M331.4 374c-37.4 0-67.8 30.4-67.8 67.8s30.4 67.8 67.8 67.8 67.8-30.4 67.8-67.8-30.4-67.8-67.8-67.8z"/></svg>