<svg viewBox="0 0 600 600" xmlns="http://www.w3.org/2000/svg"><circle cx="299.7" cy="139.8" r="46.4"/><path d="M571.4 319.1c-4.7-17.2-22.4-19.1-29.8-19.1h-23.1c-3.1-73-41.9-136.6-99.4-174.1v-6.4c0-38.6-32.7-57.6-64.3-76.1-14.7-8.6-30-17.5-43.4-28.6l-8.9-7.4-8.9 7.3c-15.7 12.9-32.2 22.6-46.8 31.2-30.9 18.2-60.2 35.3-60.2 73.5v2.7C126 159.1 84.6 225 81.4 300H58.3c-7.4 0-25.1 1.9-29.8 19.1-6.1 22.2 15.7 57.2 48.6 80-7.7 29-.8 50.3 4.8 67.9 5.6 17.3 8.2 27 1.4 39.6-24.8 46.3-1.7 84.5-.7 86.1l11.9-7.3 11.9-7.3c-.2-.3-15.7-26 1.6-58.3 12.7-23.6 6.2-43.6.5-61.3-3.1-9.6-6.1-18.9-6.8-29.4 5.5 8.4 11.6 16.5 18.3 24.1 34.2 39 76.7 60.5 120 60.5 20.5 0 30.2-13.8 37.3-23.8 7.1-10 10.9-14.8 21-14.8 10 0 13.9 4.8 21 14.8 7.1 10.1 16.9 23.8 37.3 23.8 43.2 0 85.7-21.5 119.9-60.5 10.2-11.7 19.1-24.4 26.4-37.6 2.2 16.5-1.9 29.5-6.3 43-5.7 17.7-12.1 37.7.5 61.3 17 31.7 2.2 57.3 1.5 58.4l.1-.1 11.9 7.3 11.9 7.3c1-1.6 24.1-39.8-.7-86.1-6.8-12.6-4.2-22.2 1.4-39.6 5.9-18.3 13-40.4 4-71 30.3-22.8 50-55.8 44.2-77zm-310.5-249c12.9-7.5 27.2-16 41.6-26.8 12.7 9.4 26.1 17.2 38.2 24.2 26.2 15.3 43.9 26.4 49 42.2.5 1.4.8 2.9 1.1 4.5 0 .2.1.4.1.5.1.6.1 1.2.2 1.8 0 .2-.1.4 0 .6.1.8 0 1.5 0 2.3 0 32.7-3.3 45.1-7.5 60.9-2.5 9.2-5.1 19.6-7.5 34.6H229.8c-2.3-15-5-24.8-7.5-34-4.2-15.6-7.8-29.1-7.8-61.5 0-21.2 15.1-30.9 46.4-49.3zM193 243h220v24H193v-24zm164.5 242.7h-1c-5.3 0-7.7-2.4-14.6-12-7.5-10.5-18.7-26.4-43.3-26.6-24.6.2-35.8 16.1-43.3 26.6-6.8 9.6-9.2 12-14.5 12H239.9c-50.5 0-94.8-37.7-119.7-79.7h.9c-11.1-19-18.4-38.6-20.6-56.4 97.5-20.4 196.9-16.5 198-16.4h1.2c1 0 100.4-4 198 16.5-7.1 57.6-67.2 136-140.2 136z"/></svg>