<svg viewBox="0 0 600 600" xmlns="http://www.w3.org/2000/svg"><path d="M544.5 374H505v-51.6c0-3.1-2.4-5.4-5.5-5.4H475v-71h-30v71h-48.3c-3.1 0-5.7 2.3-5.7 5.4V374h-50.8l-5.7-36.3L371.7 149h-67.3l-17-106.6c-.6-3.6-3.4-5.3-6.3-5.3s-5.7 1.6-6.3 5.2l-17 106.6h-70.5l41.1 185-6.3 40H164v-166c0-3.1-2.8-5.9-5.9-5.9H55.7c-3.1 0-5.7 2.8-5.7 5.9v351.7c0 3.1 2.6 5.4 5.7 5.4H544.5c3.1 0 5.5-2.7 5.5-5.8V379.4c0-3.1-2.4-5.4-5.5-5.4zM103 278H77v-26h26v26zm53 157h-27v-26h27v26zm179.2-256l-14.4 72.8-11.6-72.8h26zm-110.4 0h28.3l-11.8 74.3-16.5-74.3zm2.2 356l54.2-341 54.2 341H227zm194-47h-27v-27h27v27zm52-53h-26v-26h26v26z"/></svg>