<svg viewBox="0 0 600 600" xmlns="http://www.w3.org/2000/svg"><path d="M395.2 210.4c6.3 0 11.8-4.2 11.8-11.3 0-7.1-5.5-11.3-11.8-11.3-6.3 0-11.8 4.2-11.8 11.3 0 7 5.5 11.3 11.8 11.3zM276.1 184.8c-4.8 0-8.6 3.2-10.2 7.2h19.3c-.4-3-3.8-7.2-9.1-7.2z"/><path d="M565.1 185.8L491 112c-4.4-4.4-10.3-7-16.5-7h-440c-3.8 0-6.5 3.7-6.5 7.5v375.4c0 4.1 3 8.1 7.2 8.1h529.5c4.2 0 7.3-4 7.3-8.2V202.4c0-6.3-2.5-12.2-6.9-16.6zM483 146.4c0-4.6 5.6-6.9 8.9-3.7l43.8 43.4c3.3 3.3 1 8.8-3.6 8.8h-43.8c-2.9 0-5.3-2.2-5.3-5.1v-43.4zm-87.8 24.3c16.9 0 29.5 11 29.5 28.3s-12.6 28.3-29.5 28.3-29.5-11-29.5-28.3 12.6-28.3 29.5-28.3zM340 150h17v76h-17v-76zm-28 0h17v76h-17v-76zm-35.1 20.7c16.2 0 27.1 10.7 27.1 29v4.3h-37.6l.1.4c2.5 5 8.1 6.7 12.5 6.7 5.6 0 10.5-1.4 14.3-3.9l6.7 14.5c-4.5 3-10.9 5.6-21.5 5.6-19.4 0-29.8-13.1-29.8-28.6 0-16 10.8-28 28.2-28zM175 150h18v28h27v-28h19v76h-19v-29h-27v29h-18v-76zm370 298H55V275h490v173z"/><path d="M461.6 351.4l-1-1c-.3.6.8 1.4 1.3 1.6-.1-.1-.1-.3-.2-.4.1 0 0-.1-.1-.2z"/><path d="M116.1 390.7c31-13.5 61.4-28.3 91.5-43.8-9.7 13-19.4 26-29 39.1-1.8 2.5-3.7 5-5.5 7.5-6.2 4.5-8.4 13-3.5 19.4 5.1 6.7 13.5 6.3 19.4 1.9.2-.1.5-.2.7-.4l2.1-.9c.2-.1.4-.2.7-.3l1.5-.6c2.4-.1 4.3-1.1 6.5-2.1 1.1-.5 2.1-1 3-1.6.3-.1.6-.3.9-.4 4-1.9 8.1-3.9 12.1-5.8 13.1-6.3 26.3-12.5 39.4-18.7 21.2-10 42.3-20 63.5-30.1-7.8 11.3-15.7 22.7-23.5 34-2.4 3.5-4.8 6.9-7.2 10.4-6.9 9.9 4.4 22 14.9 19.4 31.5-7.9 56.6-31.2 84.7-46.3 6.9-3.7 14.2-6.8 21.3-10 1.8-.8 3.6-1.6 5.5-2.4.3-.1 1.4-.6 1.7-.7.5-.2 1.1-.4 1.6-.7 3.7-1.5 7.4-2.8 11.2-3.9 3.5-1 7-1.9 10.6-2.5.6-.1 1.2-.2 1.9-.3.3 0 1.6-.2 2-.2 2.4-.2 4.8-.4 7.1-.5 2.3-.1 4.6-.1 6.9 0 .8 0 1.6 0 2.5.1l.3.3c.1.1.2.1.4.2.2.3.4.6.5.8l.2.2.1.1V352.2h-.1c0 .1.1.1.1.2.1.3.2.7.3 1 .1.3.2.5.2.6 0 1.1-.3 2.6-.3 2.9.3-3.7-.5 1.3-.8 2.4 0-.1-.5 1.3-.7 1.9-.3.7-1.1 2.2-1.2 2.5-1.4 2.6-2.9 5-4.5 7.4-4 5.9-1.1 14.6 4.7 18.1 6.5 3.8 14.1 1.2 18.1-4.7 9-13.3 15.9-31.5 6.5-46.4-2.6-4.1-6.2-7.8-10.3-10.4-8.4-5.2-19.9-4.3-29.4-3.4-19.2 1.8-36.1 8.8-53.5 16.8-15.8 7.3-30.3 15.9-44.9 25.3-2.1 1.3-4.1 2.7-6.2 4 7.4-10.7 14.8-21.4 22.3-32.2 2.4-3.5 4.8-6.9 7.2-10.4 3.3-4.8 1.8-12.1-2.1-16-4.4-4.4-10.6-4.6-16-2.1-18.8 8.9-37.5 17.7-56.2 26.6-24.1 11.4-48.3 22.8-72.4 34.3l27-36.3c2.9-3.9 5.8-7.8 8.7-11.8.7-.2 1.3-.5 2-.9 6.3-3.7 8.2-11.8 4.7-18.1-.4-.6-.7-1.3-1.1-1.9-.2-.3-.4-.6-.6-1-.1-.1-.2-.2-.3-.4-.1-.1-.2-.3-.3-.4l-.9-.9c-.6-.5-1.1-1-1.8-1.4-.2-.1-.3-.2-.5-.3-.1-.1-.2-.1-.3-.2-2.1-1.2-4.4-1.9-6.8-1.9-2 0-3.8.4-5.4 1.2-.4.2-.9.4-1.3.6-47 25.3-94.4 49.9-143.3 71.2-6.5 2.8-8 12.4-4.7 18.1 4 6.5 11.6 7.3 18.1 4.5zm344.2-40.6c-.8-.1-.5-.1 0 0z"/></svg>