<svg viewBox="0 0 600 600" xmlns="http://www.w3.org/2000/svg"><circle cx="374.1" cy="132.8" r="15.6"/><circle cx="473.4" cy="269.9" r="16.6"/><circle cx="427.6" cy="84.3" r="16.6"/><path d="M435.5 203.4c4-2.7 6.5-2.4 13.7-1.1 8.6 1.6 21.7 4.1 36.1-5.7 14.4-9.8 17-22.8 18.6-31.4 1.4-7.2 2-9.6 6.1-12.4 5.4-3.7 11.9-3.9 21.6-.5 7.8 2.7 16.4-1.5 19.1-9.3 2.7-7.8-1.5-16.4-9.3-19.1-6.9-2.4-28-9.6-48.2 4.1-14.4 9.8-17 22.8-18.6 31.4-1.4 7.2-2 9.6-6.1 12.4s-6.5 2.4-13.7 1.1c-8.6-1.6-21.7-4.1-36.1 5.7s-17 22.8-18.6 31.4c-1.4 7.2-2 9.6-6.1 12.4-4 2.7-6.5 2.4-13.7 1.1-1.5-.3-3.1-.6-4.8-.8-8.2-1.2-15.8 4.4-17.1 12.6-1.2 8.2 4.4 15.8 12.6 17.1 1.2.2 2.5.4 3.8.7 3.6.7 8 1.5 13 1.5 6.8 0 14.7-1.6 23.1-7.2 14.4-9.8 17-22.8 18.6-31.4 1.3-7.5 2-9.9 6-12.6zM267.8 176.4c1.8 0 3.6-.3 5.3-1 1.2-.4 2.5-.9 3.8-1.3 8.5-2.9 21.4-7.3 29.3-23.2 7.9-16 3.6-28.9.8-37.4-2.4-7.4-3.1-9.9-.8-14.6 2.3-4.7 4.8-5.7 12.1-8.2 8.5-2.9 21.4-7.3 29.3-23.2 7.9-16 3.6-28.9.8-37.4l-.4-1.3c-2.6-7.9-11.1-12.2-18.9-9.6-7.9 2.6-12.2 11.1-9.6 18.9l.5 1.4c2.4 7.4 3.1 9.9.8 14.6-2.3 4.7-4.8 5.7-12.1 8.2-8.5 2.9-21.4 7.3-29.3 23.2-7.9 16-3.6 28.9-.8 37.4 2.4 7.4 3.1 9.9.8 14.6s-4.8 5.7-12.1 8.2c-1.5.5-3.1 1.1-4.8 1.7-7.7 2.9-11.6 11.6-8.7 19.3 2.2 6 7.9 9.7 14 9.7zM578.1 315.2c-6.9-4.6-16.2-2.6-20.8 4.3-.9 1.4-1.7 2.7-2.5 3.9-3.7 6.1-4.9 7.5-8.7 8.4-3.8.9-5.5.2-11.6-3.4-7.2-4.3-18-10.8-34.2-6.8-16.2 4-22.8 14.8-27.1 21.9-3.7 6.1-4.9 7.5-8.7 8.4-3.8.9-5.5.2-11.6-3.4l-1.2-.7c-7.1-4.2-16.3-1.9-20.6 5.2-4.2 7.1-1.9 16.3 5.2 20.6l1.1.6c5.6 3.4 13.4 8.1 24.3 8.1 3 0 6.3-.4 9.9-1.2 16.2-4 22.8-14.8 27.1-21.9 3.7-6.1 4.9-7.5 8.7-8.4 3.8-.9 5.5-.2 11.6 3.4 7.2 4.3 18 10.8 34.2 6.8 16.2-4 22.8-14.8 27.1-21.9.7-1.1 1.3-2.1 1.9-3 4.8-7.1 2.9-16.4-4.1-20.9zM196 196.4c-6.8-1.7-13.9 1.6-17 8l-6.1 12.6h-.2l-13.4 27.9.5.3c-.2 0-.3-.1-.5-.1L90.8 387.2l-73 151.5c-7.6 15.7 7.4 32.7 23.9 27.2l103.7-34.5 7.3 21.5c2.9 8.6 9.1 15.6 17.2 19.6 4.8 2.3 9.9 3.5 15 3.5 3.7 0 7.4-.6 11-1.8l63.2-21.5c8.6-2.9 15.6-9.1 19.6-17.2 4-8.2 4.6-17.4 1.7-26.1l-7-20.6 73.6-24.5v-.4l29.4-9.5v.2l16.9-5.6c6.9-2.3 11-9.1 10-16.3C377.8 254.9 238 206.9 196 196.4zm53.6 328l-63.2 21.5c-1.3.5-2.4.1-3.1-.2-.7-.3-1.6-1-2.1-2.4l-7.3-21.3 27.4-9.1 43.7-14.5 7.1 20.8c.8 2.1-.4 4.4-2.5 5.2zm94.6-86.5c-8.1-48.4-30.9-93-66.3-128.3-26.6-26.6-58.5-46.2-93.3-57.6l12.8-27.4c37.9 13 72.5 34.6 101.7 63.8 38.8 38.8 64.2 87.5 73.9 140.4l-28.8 9.1z"/></svg>