<svg viewBox="0 0 600 600" xmlns="http://www.w3.org/2000/svg"><path d="M559 237.7c-1.7-8.4-3.9-16.9-6.5-25.3-2.6-8.3-5.6-16.5-8.9-24.3-3.2-7.7-7-15.4-11.2-23.1-4.2-7.6-8.6-15-13.2-21.8-4.7-6.9-9.8-13.7-15.2-20.3-16.2-19.6-35.1-36.8-56.2-51-12-8.1-24.8-15.3-38-21.3l-2.2-1-2.1-.9c-.9-.4-1.8-.8-2.6-1.1-16-6.8-32.7-11.9-49.6-15.4-17.4-3.6-35.3-5.4-53.2-5.4-17.9 0-35.8 1.8-53.2 5.4-16.9 3.5-33.6 8.7-49.6 15.4-15.7 6.6-30.8 14.8-44.9 24.4-21.1 14.2-40 31.4-56.2 51-5.4 6.6-10.6 13.4-15.2 20.3-4.6 6.8-9.1 14.2-13.2 21.8-4.2 7.6-7.9 15.4-11.2 23.1-3.3 7.8-6.3 16-8.9 24.3-2.6 8.4-4.8 16.9-6.5 25.3-3.6 17.3-5.4 35.3-5.4 53.3 0 9.1.5 18.1 1.4 27 .9 8.8 2.2 17.7 4 26.2 1.7 8.4 3.9 16.9 6.5 25.3 2.6 8.3 5.6 16.5 8.9 24.3 3.2 7.7 7 15.4 11.2 23.1 4.1 7.6 8.6 15 13.2 21.8 4.7 6.9 9.8 13.7 15.2 20.3 5.4 6.5 11.1 12.9 17.1 18.8 18 18 38.5 33.4 60.9 45.5 3.7 2 7.4 3.9 11.1 5.7-20 .8-38.6 1.9-55.1 3.2-22.2 1.7-39.6 3.7-51.9 5.9-14.2 2.6-22.9 5.5-22.9 12.1 0 4.9 3.8 8.6 22.9 12.1 12.2 2.2 29.7 4.2 51.9 5.9 45.4 3.5 105.8 5.4 169.9 5.4 64.2 0 124.5-1.9 169.9-5.4 22.2-1.7 39.6-3.7 51.9-5.9 14.2-2.6 22.9-5.5 22.9-12.1 0-4.9-3.8-8.6-22.9-12.1-12.2-2.2-29.7-4.2-51.9-5.9-16.6-1.3-35.1-2.3-55.1-3.2 3.8-1.8 7.5-3.7 11.1-5.7 22.4-12.2 42.8-27.5 60.9-45.5 5.9-5.9 11.7-12.2 17.1-18.8 5.5-6.6 10.6-13.4 15.2-20.3 4.6-6.8 9.1-14.2 13.2-21.8 4.2-7.6 7.9-15.4 11.2-23.1 3.3-7.8 6.3-16 8.9-24.3 2.6-8.4 4.8-16.9 6.5-25.3 1.8-8.6 3.1-17.4 4-26.2.9-8.8 1.4-17.9 1.4-27 0-18.2-1.8-36.1-5.4-53.4zm-273.9-31.8l-68.3 49.5-73.9-21.2-32.7-82.7c8.7-11.9 18.7-23 29.7-33.3 1.1-1 2.3-2.1 3.4-3.1 3.9-3.5 7.3-6.3 10.5-8.9l1.2-1c6.6-5.1 13.9-10.2 21.8-15.1l.1-.1c2.1-1.3 4.1-2.5 6.1-3.7 3.2-1.8 6.6-3.7 10.3-5.6 2.1-1 4.1-2 6.3-3l2.2-1c2.2-1 4.4-2.1 6.7-3.1l73.1 52 3.5 80.3zm-52.4 159.2l-39.3 48.3-94.7-.2c-3.6-6-7.1-12.4-10.5-19.3-.2-.3-.3-.7-.5-1v-.1c-3.3-6.9-6.4-14.2-9-21.5-.2-.5-.4-1-.5-1.5-.1-.4-.3-.8-.4-1.1-2.4-6.7-4.5-14-6.4-21.7-.1-.5-.3-1.1-.4-1.6-.1-.5-.3-1-.4-1.5-1.7-7.4-3-14.9-4-22.4l71.3-58.9 68 19.5 26.8 83zm218.5-133.8l-65.6 25.6-72-52.5-3.4-80 72.9-54.1c14.1 5.3 27.8 12.1 40.8 20.1l1.3.7 1.3.8c4 2 8 5.2 11.8 7.9.3.2.5.3.8.5.3.2.6.5.9.7 12.1 8.9 23.4 19.1 33.7 30.2l.4.5c.7.8 1.5 1.6 2.2 2.5 2.8 3.2 5.4 6.1 7.6 9l-32.7 88.1zm-57.4 53l67.5-26.4 72.4 57.4.9.6c-.1 1.2-.3 2.4-.5 3.7l-.3 2.2c-.5 4.1-1.1 7.9-1.8 11.5-.6 3.5-1.3 6.7-2 9.8-.6 2.8-1.4 5.6-2.1 8.3l-.3 1.2c-1.8 6.8-3.9 13.3-6.1 19.3l-.5 1.5c-.5 1.4-1 2.8-1.5 4.1-1.6 4.1-3.5 8.3-5.6 12.8l-1.3 2.8c-6.3 13.1-13.8 25.5-22.2 37h-.2l-95.6-9.1-28.3-52.3 27.5-84.4zm-60.2 238.2c-.2.6-.4 1.2-.6 1.7-4.5.6-8.9 1.2-13.3 1.6-6.2.5-12.9 1-19.6 1-6.8 0-13.6-.5-19.8-1h-.2c-2.8-.2-5.6-.5-8.3-.8-1-.2-2.1-.3-3.2-.5-8.4-1.2-16.5-2.7-24.2-4.6L215.7 431l38.6-47.4 87.7.2 28.8 53.2-37.2 85.5z"/></svg>